<svg width="77" height="25" viewBox="0 0 77 25" fill="none" xmlns="http://www.w3.org/2000/svg">
<mask id="mask0_12641_59046" style="mask-type:alpha" maskUnits="userSpaceOnUse" x="0" y="0" width="25" height="25">
<rect x="0.335938" y="0.5" width="24" height="24" fill="#D9D9D9"/>
</mask>
<g mask="url(#mask0_12641_59046)">
<path d="M8.33594 19.5004H15.3359V9.50039H13.3359C12.8693 9.50039 12.4859 9.61706 12.1859 9.85039C11.8859 10.0837 11.5276 10.4254 11.1109 10.8754C10.7776 11.2421 10.3901 11.6212 9.94844 12.0129C9.50677 12.4046 8.96927 12.6921 8.33594 12.8754V19.5004ZM6.33594 21.5004V12.8504C5.46927 12.6171 4.7526 12.1504 4.18594 11.4504C3.61927 10.7504 3.33594 9.93372 3.33594 9.00039C3.33594 8.11706 3.5901 7.33372 4.09844 6.65039C4.60677 5.96706 5.26094 5.49206 6.06094 5.22539C6.44427 4.42539 7.0151 3.77539 7.77344 3.27539C8.53177 2.77539 9.38594 2.52539 10.3359 2.52539C10.9193 2.52539 11.4651 2.62539 11.9734 2.82539C12.4818 3.02539 12.9443 3.29206 13.3609 3.62539C13.5276 3.59206 13.6859 3.56289 13.8359 3.53789C13.9859 3.51289 14.1526 3.50039 14.3359 3.50039C15.4359 3.50039 16.3776 3.89206 17.1609 4.67539C17.9443 5.45872 18.3359 6.40039 18.3359 7.50039C18.3359 7.86706 18.2901 8.21706 18.1984 8.55039C18.1068 8.88372 17.9693 9.20039 17.7859 9.50039H19.3359C19.8859 9.50039 20.3568 9.69622 20.7484 10.0879C21.1401 10.4796 21.3359 10.9504 21.3359 11.5004V17.5004C21.3359 18.0504 21.1401 18.5212 20.7484 18.9129C20.3568 19.3046 19.8859 19.5004 19.3359 19.5004H17.3359V21.5004H6.33594ZM5.33594 9.00039C5.33594 9.55039 5.53177 10.0212 5.92344 10.4129C6.3151 10.8046 6.78594 11.0004 7.33594 11.0004C7.86927 11.0004 8.32344 10.8254 8.69844 10.4754C9.07344 10.1254 9.46094 9.73372 9.86094 9.30039C10.2776 8.85039 10.7484 8.43789 11.2734 8.06289C11.7984 7.68789 12.4859 7.50039 13.3359 7.50039H16.3359C16.3359 6.95039 16.1401 6.47956 15.7484 6.08789C15.3568 5.69622 14.8859 5.50039 14.3359 5.50039C13.9193 5.50039 13.5693 5.55456 13.2859 5.66289L12.8609 5.82539L12.0859 5.17539C11.9026 5.02539 11.6651 4.87956 11.3734 4.73789C11.0818 4.59622 10.7359 4.52539 10.3359 4.52539C9.8026 4.52539 9.3151 4.66706 8.87344 4.95039C8.43177 5.23372 8.09427 5.61706 7.86094 6.10039L7.51094 6.85039L6.71094 7.12539C6.29427 7.25872 5.96094 7.49622 5.71094 7.83789C5.46094 8.17956 5.33594 8.56706 5.33594 9.00039ZM17.3359 17.5004H19.3359V11.5004H17.3359V17.5004Z" fill="black"/>
</g>
<mask id="mask1_12641_59046" style="mask-type:alpha" maskUnits="userSpaceOnUse" x="28" y="0" width="25" height="25">
<rect x="28.3359" y="0.5" width="24" height="24" fill="#D9D9D9"/>
</mask>
<g mask="url(#mask1_12641_59046)">
<path d="M36.3359 19.5004H43.3359V9.50039H41.3359C40.8693 9.50039 40.4859 9.61706 40.1859 9.85039C39.8859 10.0837 39.5276 10.4254 39.1109 10.8754C38.7776 11.2421 38.3901 11.6212 37.9484 12.0129C37.5068 12.4046 36.9693 12.6921 36.3359 12.8754V19.5004ZM34.3359 21.5004V12.8504C33.4693 12.6171 32.7526 12.1504 32.1859 11.4504C31.6193 10.7504 31.3359 9.93372 31.3359 9.00039C31.3359 8.11706 31.5901 7.33372 32.0984 6.65039C32.6068 5.96706 33.2609 5.49206 34.0609 5.22539C34.4443 4.42539 35.0151 3.77539 35.7734 3.27539C36.5318 2.77539 37.3859 2.52539 38.3359 2.52539C38.9193 2.52539 39.4651 2.62539 39.9734 2.82539C40.4818 3.02539 40.9443 3.29206 41.3609 3.62539C41.5276 3.59206 41.6859 3.56289 41.8359 3.53789C41.9859 3.51289 42.1526 3.50039 42.3359 3.50039C43.4359 3.50039 44.3776 3.89206 45.1609 4.67539C45.9443 5.45872 46.3359 6.40039 46.3359 7.50039C46.3359 7.86706 46.2901 8.21706 46.1984 8.55039C46.1068 8.88372 45.9693 9.20039 45.7859 9.50039H47.3359C47.8859 9.50039 48.3568 9.69622 48.7484 10.0879C49.1401 10.4796 49.3359 10.9504 49.3359 11.5004V17.5004C49.3359 18.0504 49.1401 18.5212 48.7484 18.9129C48.3568 19.3046 47.8859 19.5004 47.3359 19.5004H45.3359V21.5004H34.3359ZM33.3359 9.00039C33.3359 9.55039 33.5318 10.0212 33.9234 10.4129C34.3151 10.8046 34.7859 11.0004 35.3359 11.0004C35.8693 11.0004 36.3234 10.8254 36.6984 10.4754C37.0734 10.1254 37.4609 9.73372 37.8609 9.30039C38.2776 8.85039 38.7484 8.43789 39.2734 8.06289C39.7984 7.68789 40.4859 7.50039 41.3359 7.50039H44.3359C44.3359 6.95039 44.1401 6.47956 43.7484 6.08789C43.3568 5.69622 42.8859 5.50039 42.3359 5.50039C41.9193 5.50039 41.5693 5.55456 41.2859 5.66289L40.8609 5.82539L40.0859 5.17539C39.9026 5.02539 39.6651 4.87956 39.3734 4.73789C39.0818 4.59622 38.7359 4.52539 38.3359 4.52539C37.8026 4.52539 37.3151 4.66706 36.8734 4.95039C36.4318 5.23372 36.0943 5.61706 35.8609 6.10039L35.5109 6.85039L34.7109 7.12539C34.2943 7.25872 33.9609 7.49622 33.7109 7.83789C33.4609 8.17956 33.3359 8.56706 33.3359 9.00039ZM45.3359 17.5004H47.3359V11.5004H45.3359V17.5004Z" fill="black"/>
</g>
<rect x="56.3359" y="5.5" width="2" height="14" rx="1" fill="black"/>
<mask id="mask2_12641_59046" style="mask-type:alpha" maskUnits="userSpaceOnUse" x="62" y="5" width="15" height="15">
<rect x="62.3359" y="5.5" width="14" height="14" fill="#D9D9D9"/>
</mask>
<g mask="url(#mask2_12641_59046)">
<path d="M66.401 13.9299L66.7219 16.832H71.9427L72.2781 13.8424C71.967 13.8327 71.651 13.7987 71.3302 13.7404C71.0094 13.682 70.6108 13.5848 70.1344 13.4487C69.9108 13.3904 69.6872 13.3466 69.4635 13.3174C69.2399 13.2883 69.0212 13.2737 68.8073 13.2737C68.4378 13.2737 68.049 13.3272 67.6406 13.4341C67.2323 13.5411 66.8191 13.7063 66.401 13.9299ZM66.1823 11.9758C66.6198 11.8008 67.0573 11.6671 67.4948 11.5747C67.9323 11.4824 68.3698 11.4362 68.8073 11.4362C69.1184 11.4362 69.4271 11.4581 69.7333 11.5018C70.0396 11.5456 70.3385 11.6063 70.6302 11.6841C71.0969 11.8202 71.4542 11.9102 71.7021 11.9539C71.95 11.9977 72.2101 12.0195 72.4823 12.0195L72.9052 8.16953H65.7594L66.1823 11.9758ZM66.7073 18.6695C66.2406 18.6695 65.8323 18.514 65.4823 18.2029C65.1323 17.8918 64.933 17.5029 64.8844 17.0362L63.7031 6.33203H74.9615L73.7802 17.0362C73.7316 17.5029 73.5323 17.8918 73.1823 18.2029C72.8323 18.514 72.424 18.6695 71.9573 18.6695H66.7073Z" fill="black"/>
</g>
</svg>
