<svg width="86" height="25" viewBox="0 0 86 25" fill="none" xmlns="http://www.w3.org/2000/svg">
<mask id="mask0_12641_59031" style="mask-type:alpha" maskUnits="userSpaceOnUse" x="0" y="0" width="24" height="25">
<rect y="0.5" width="24" height="24" fill="#D9D9D9"/>
</mask>
<g mask="url(#mask0_12641_59031)">
<path d="M8 19.5004H15V9.50039H13C12.5333 9.50039 12.15 9.61706 11.85 9.85039C11.55 10.0837 11.1917 10.4254 10.775 10.8754C10.4417 11.2421 10.0542 11.6212 9.6125 12.0129C9.17083 12.4046 8.63333 12.6921 8 12.8754V19.5004ZM6 21.5004V12.8504C5.13333 12.6171 4.41667 12.1504 3.85 11.4504C3.28333 10.7504 3 9.93372 3 9.00039C3 8.11706 3.25417 7.33372 3.7625 6.65039C4.27083 5.96706 4.925 5.49206 5.725 5.22539C6.10833 4.42539 6.67917 3.77539 7.4375 3.27539C8.19583 2.77539 9.05 2.52539 10 2.52539C10.5833 2.52539 11.1292 2.62539 11.6375 2.82539C12.1458 3.02539 12.6083 3.29206 13.025 3.62539C13.1917 3.59206 13.35 3.56289 13.5 3.53789C13.65 3.51289 13.8167 3.50039 14 3.50039C15.1 3.50039 16.0417 3.89206 16.825 4.67539C17.6083 5.45872 18 6.40039 18 7.50039C18 7.86706 17.9542 8.21706 17.8625 8.55039C17.7708 8.88372 17.6333 9.20039 17.45 9.50039H19C19.55 9.50039 20.0208 9.69622 20.4125 10.0879C20.8042 10.4796 21 10.9504 21 11.5004V17.5004C21 18.0504 20.8042 18.5212 20.4125 18.9129C20.0208 19.3046 19.55 19.5004 19 19.5004H17V21.5004H6ZM5 9.00039C5 9.55039 5.19583 10.0212 5.5875 10.4129C5.97917 10.8046 6.45 11.0004 7 11.0004C7.53333 11.0004 7.9875 10.8254 8.3625 10.4754C8.7375 10.1254 9.125 9.73372 9.525 9.30039C9.94167 8.85039 10.4125 8.43789 10.9375 8.06289C11.4625 7.68789 12.15 7.50039 13 7.50039H16C16 6.95039 15.8042 6.47956 15.4125 6.08789C15.0208 5.69622 14.55 5.50039 14 5.50039C13.5833 5.50039 13.2333 5.55456 12.95 5.66289L12.525 5.82539L11.75 5.17539C11.5667 5.02539 11.3292 4.87956 11.0375 4.73789C10.7458 4.59622 10.4 4.52539 10 4.52539C9.46667 4.52539 8.97917 4.66706 8.5375 4.95039C8.09583 5.23372 7.75833 5.61706 7.525 6.10039L7.175 6.85039L6.375 7.12539C5.95833 7.25872 5.625 7.49622 5.375 7.83789C5.125 8.17956 5 8.56706 5 9.00039ZM17 17.5004H19V11.5004H17V17.5004Z" fill="black"/>
</g>
<rect x="28" y="5.5" width="2" height="14" rx="1" fill="black"/>
<mask id="mask1_12641_59031" style="mask-type:alpha" maskUnits="userSpaceOnUse" x="34" y="0" width="24" height="25">
<rect x="34" y="0.5" width="24" height="24" fill="#D9D9D9"/>
</mask>
<g mask="url(#mask1_12641_59031)">
<path d="M40 21.5V19.5H45V14.5L37 5.5V3.5H55V5.5L47 14.5V19.5H52V21.5H40ZM41.45 7.5H50.55L52.35 5.5H39.65L41.45 7.5ZM46 12.6L48.775 9.5H43.225L46 12.6Z" fill="black"/>
</g>
<mask id="mask2_12641_59031" style="mask-type:alpha" maskUnits="userSpaceOnUse" x="62" y="0" width="24" height="25">
<rect x="62" y="0.5" width="24" height="24" fill="#D9D9D9"/>
</mask>
<g mask="url(#mask2_12641_59031)">
<path d="M68 21.5V19.5H73V14.5L65 5.5V3.5H83V5.5L75 14.5V19.5H80V21.5H68ZM69.45 7.5H78.55L80.35 5.5H67.65L69.45 7.5ZM74 12.6L76.775 9.5H71.225L74 12.6Z" fill="black"/>
</g>
</svg>
