<svg width="80" height="80" viewBox="0 0 80 80" fill="none" xmlns="http://www.w3.org/2000/svg">
<mask id="mask0_12641_60048" style="mask-type:alpha" maskUnits="userSpaceOnUse" x="0" y="0" width="80" height="80">
<rect width="80" height="80" fill="#D9D9D9"/>
</mask>
<g mask="url(#mask0_12641_60048)">
<path d="M56.2725 50.8649L64.787 42.3069C66.6034 40.489 67.9941 38.4155 68.959 36.0863C69.924 33.7571 70.4065 31.3144 70.4065 28.758C70.4065 23.4247 68.5484 18.9 64.8321 15.1838C61.1159 11.4675 56.5912 9.60938 51.258 9.60938C48.7048 9.60938 46.263 10.0919 43.9327 11.0569C41.6024 12.0218 39.5278 13.4125 37.709 15.229L29.151 23.7435L56.2725 50.8649ZM28.758 70.4065C31.3111 70.4065 33.7529 69.924 36.0832 68.959C38.4135 67.9941 40.4881 66.6034 42.3069 64.787L50.8649 56.2725L23.7435 29.151L15.229 37.709C13.4125 39.5269 12.0218 41.6005 11.0569 43.9296C10.0919 46.2588 9.60938 48.7016 9.60938 51.258C9.60938 56.5912 11.4675 61.1159 15.1838 64.8321C18.9 68.5484 23.4247 70.4065 28.758 70.4065Z" fill="#6100FF" fill-opacity="0.04"/>
</g>
</svg>
