<svg width="240" height="241" viewBox="0 0 240 241" fill="none" xmlns="http://www.w3.org/2000/svg">
<g opacity="0.04">
<mask id="mask0_12676_58023" style="mask-type:alpha" maskUnits="userSpaceOnUse" x="0" y="0" width="240" height="241">
<rect y="0.5" width="240" height="240" fill="#D9D9D9"/>
</mask>
<g mask="url(#mask0_12676_58023)">
<path d="M50.75 222.5C44.4167 222.5 39.0433 220.293 34.63 215.88C30.21 211.46 28 206.083 28 199.75V61.25C28 54.9167 30.21 49.54 34.63 45.12C39.0433 40.7067 44.4167 38.5 50.75 38.5H60V18.5H81.5V38.5H158.5V18.5H180V38.5H189.25C195.583 38.5 200.96 40.7067 205.38 45.12C209.793 49.54 212 54.9167 212 61.25V199.75C212 206.083 209.793 211.46 205.38 215.88C200.96 220.293 195.583 222.5 189.25 222.5H50.75ZM50.75 199.75H189.25V100.5H50.75V199.75ZM50.75 80.5H189.25V61.25H50.75V80.5ZM120 141C117 141 114.5 140 112.5 138C110.5 136 109.5 133.5 109.5 130.5C109.5 127.5 110.5 125 112.5 123C114.5 121 117 120 120 120C123 120 125.5 121 127.5 123C129.5 125 130.5 127.5 130.5 130.5C130.5 133.5 129.5 136 127.5 138C125.5 140 123 141 120 141ZM80 141C77 141 74.5 140 72.5 138C70.5 136 69.5 133.5 69.5 130.5C69.5 127.5 70.5 125 72.5 123C74.5 121 77 120 80 120C83 120 85.5 121 87.5 123C89.5 125 90.5 127.5 90.5 130.5C90.5 133.5 89.5 136 87.5 138C85.5 140 83 141 80 141ZM160 141C157.167 141 154.71 140 152.63 138C150.543 136 149.5 133.5 149.5 130.5C149.5 127.5 150.543 125 152.63 123C154.71 121 157.167 120 160 120C163 120 165.5 121 167.5 123C169.5 125 170.5 127.5 170.5 130.5C170.5 133.5 169.5 136 167.5 138C165.5 140 163 141 160 141ZM120 181C117 181 114.5 179.96 112.5 177.88C110.5 175.793 109.5 173.333 109.5 170.5C109.5 167.5 110.5 165 112.5 163C114.5 161 117 160 120 160C123 160 125.5 161 127.5 163C129.5 165 130.5 167.5 130.5 170.5C130.5 173.333 129.5 175.793 127.5 177.88C125.5 179.96 123 181 120 181ZM80 181C77 181 74.5 179.96 72.5 177.88C70.5 175.793 69.5 173.333 69.5 170.5C69.5 167.5 70.5 165 72.5 163C74.5 161 77 160 80 160C83 160 85.5 161 87.5 163C89.5 165 90.5 167.5 90.5 170.5C90.5 173.333 89.5 175.793 87.5 177.88C85.5 179.96 83 181 80 181ZM160 181C157.167 181 154.71 179.96 152.63 177.88C150.543 175.793 149.5 173.333 149.5 170.5C149.5 167.5 150.543 165 152.63 163C154.71 161 157.167 160 160 160C163 160 165.5 161 167.5 163C169.5 165 170.5 167.5 170.5 170.5C170.5 173.333 169.5 175.793 167.5 177.88C165.5 179.96 163 181 160 181Z" fill="#6100FF"/>
</g>
</g>
</svg>
