<svg width="56" height="57" viewBox="0 0 56 57" fill="none" xmlns="http://www.w3.org/2000/svg">
<path d="M44.8744 56.0008C42.4344 56.0008 39.0069 55.1183 33.8744 52.2508C27.6332 48.7508 22.8057 45.5195 16.5982 39.3283C10.6132 33.347 7.70069 29.4745 3.62444 22.057C-0.980556 13.682 -0.195556 9.29204 0.681944 7.41579C1.72694 5.17329 3.26944 3.83204 5.26319 2.50079C6.39563 1.75884 7.59403 1.12282 8.84319 0.600793C8.96819 0.547043 9.08444 0.495793 9.18819 0.449543C9.80694 0.170793 10.7444 -0.250457 11.9319 0.199543C12.7244 0.497043 13.4319 1.10579 14.5394 2.19954C16.8107 4.43954 19.9144 9.42829 21.0594 11.8783C21.8282 13.5295 22.3369 14.6195 22.3382 15.842C22.3382 17.2733 21.6182 18.377 20.7444 19.5683C20.5807 19.792 20.4182 20.0058 20.2607 20.2133C19.3094 21.4633 19.1007 21.8245 19.2382 22.4695C19.5169 23.7658 21.5957 27.6245 25.0119 31.0333C28.4282 34.442 32.1757 36.3895 33.4769 36.667C34.1494 36.8108 34.5182 36.5933 35.8082 35.6083C35.9932 35.467 36.1832 35.3208 36.3819 35.1745C37.7144 34.1833 38.7669 33.482 40.1644 33.482H40.1719C41.3882 33.482 42.4294 34.0095 44.1544 34.8795C46.4044 36.0145 51.5432 39.0783 53.7969 41.352C54.8932 42.457 55.5044 43.162 55.8032 43.9533C56.2532 45.1445 55.8294 46.0783 55.5532 46.7033C55.5069 46.807 55.4557 46.9208 55.4019 47.047C54.8758 48.294 54.236 49.4899 53.4907 50.6195C52.1619 52.607 50.8157 54.1458 48.5682 55.192C47.4141 55.7379 46.1511 56.0145 44.8744 56.0008Z" fill="white"/>
</svg>
