<svg width="80" height="80" viewBox="0 0 80 80" fill="none" xmlns="http://www.w3.org/2000/svg">
<mask id="mask0_12641_60057" style="mask-type:alpha" maskUnits="userSpaceOnUse" x="0" y="0" width="80" height="80">
<rect width="80" height="80" fill="#D9D9D9"/>
</mask>
<g mask="url(#mask0_12641_60057)">
<path d="M6.60938 73.3955C6.60938 67.2688 7.40557 62.0248 8.99796 57.6637C10.5903 53.3026 12.6377 49.6643 15.1401 46.7489C17.6426 43.8334 20.4572 41.564 23.584 39.9409C26.7108 38.3177 29.8086 37.1872 32.8775 36.5495V27.1673C25.2531 26.1432 18.9889 23.7329 14.0849 19.9364C9.18088 16.1399 6.68904 11.6975 6.60938 6.60938H73.3955C73.3159 11.6975 70.824 16.1432 65.92 19.9463C61.016 23.7495 54.7519 26.1565 47.1275 27.1673V36.5495C50.1963 37.1872 53.2941 38.3177 56.421 39.9409C59.5477 41.564 62.3624 43.8334 64.8648 46.7489C67.3672 49.6643 69.4146 53.3026 71.007 57.6637C72.5993 62.0248 73.3955 67.2688 73.3955 73.3955H53.7543V65.8122H65.2162C64.1498 57.8859 61.1033 52.16 56.0767 48.6347C51.0502 45.1094 45.6854 43.3467 39.9825 43.3467C34.2797 43.3467 28.9249 45.1094 23.9182 48.6347C18.9116 52.16 15.8684 57.8859 14.7887 65.8122H26.2506V73.3955H6.60938ZM39.7035 73.3955C37.8437 73.3955 36.2476 72.7295 34.9155 71.3974C33.5833 70.0653 32.9173 68.4693 32.9173 66.6094C32.9173 65.6516 33.0978 64.7739 33.459 63.9762C33.8201 63.1785 34.3195 62.4674 34.9571 61.843C36.2772 60.523 38.5637 59.1269 41.8168 57.6546C45.0698 56.1824 48.863 54.6697 53.1963 53.1166C51.6142 57.45 50.0909 61.2464 48.6265 64.5061C47.1622 67.7657 45.77 70.0556 44.45 71.3756C43.8255 72.0134 43.1178 72.5094 42.3267 72.8639C41.5357 73.2183 40.6613 73.3955 39.7035 73.3955Z" fill="#6100FF" fill-opacity="0.04"/>
</g>
</svg>
