<svg width="25" height="25" viewBox="0 0 25 25" fill="none" xmlns="http://www.w3.org/2000/svg">
<mask id="mask0_12777_59027" style="mask-type:alpha" maskUnits="userSpaceOnUse" x="0" y="0" width="25" height="25">
<rect x="0.664062" y="0.5" width="24" height="24" fill="#D9D9D9"/>
</mask>
<g mask="url(#mask0_12777_59027)">
<path d="M1.61406 13.8C1.31406 13.2 1.08073 12.5917 0.914062 11.975C0.747396 11.3583 0.664062 10.7333 0.664062 10.1C0.664062 8.23333 1.2974 6.66667 2.56406 5.4C3.83073 4.13333 5.3974 3.5 7.26406 3.5C8.31406 3.5 9.31406 3.72083 10.2641 4.1625C11.2141 4.60417 12.0141 5.21667 12.6641 6C13.3141 5.21667 14.1141 4.60417 15.0641 4.1625C16.0141 3.72083 17.0141 3.5 18.0641 3.5C19.9307 3.5 21.4974 4.13333 22.7641 5.4C24.0307 6.66667 24.6641 8.23333 24.6641 10.1C24.6641 10.7333 24.5807 11.3583 24.4141 11.975C24.2474 12.5917 24.0141 13.2 23.7141 13.8C23.5307 13.4833 23.3141 13.2 23.0641 12.95C22.8141 12.7 22.5224 12.5 22.1891 12.35C22.3391 11.9667 22.4557 11.5917 22.5391 11.225C22.6224 10.8583 22.6641 10.4833 22.6641 10.1C22.6641 8.8 22.2224 7.70833 21.3391 6.825C20.4557 5.94167 19.3641 5.5 18.0641 5.5C16.7141 5.5 15.6766 5.87083 14.9516 6.6125C14.2266 7.35417 13.4641 8.18333 12.6641 9.1C11.8641 8.16667 11.1016 7.33333 10.3766 6.6C9.65156 5.86667 8.61406 5.5 7.26406 5.5C5.96406 5.5 4.8724 5.94167 3.98906 6.825C3.10573 7.70833 2.66406 8.8 2.66406 10.1C2.66406 10.4833 2.70573 10.8583 2.78906 11.225C2.8724 11.5917 2.98906 11.9667 3.13906 12.35C2.80573 12.5 2.51406 12.7 2.26406 12.95C2.01406 13.2 1.7974 13.4833 1.61406 13.8ZM0.664062 22.5V20.925C0.664062 20.1917 1.0349 19.6042 1.77656 19.1625C2.51823 18.7208 3.48073 18.5 4.66406 18.5C4.88073 18.5 5.08906 18.5042 5.28906 18.5125C5.48906 18.5208 5.68073 18.5417 5.86406 18.575C5.63073 18.9083 5.45573 19.2667 5.33906 19.65C5.2224 20.0333 5.16406 20.4417 5.16406 20.875V22.5H0.664062ZM6.66406 22.5V20.875C6.66406 19.7917 7.21823 18.9167 8.32656 18.25C9.4349 17.5833 10.8807 17.25 12.6641 17.25C14.4641 17.25 15.9141 17.5833 17.0141 18.25C18.1141 18.9167 18.6641 19.7917 18.6641 20.875V22.5H6.66406ZM20.1641 22.5V20.875C20.1641 20.4417 20.1099 20.0333 20.0016 19.65C19.8932 19.2667 19.7307 18.9083 19.5141 18.575C19.6974 18.5417 19.8849 18.5208 20.0766 18.5125C20.2682 18.5042 20.4641 18.5 20.6641 18.5C21.8641 18.5 22.8307 18.7208 23.5641 19.1625C24.2974 19.6042 24.6641 20.1917 24.6641 20.925V22.5H20.1641ZM12.6641 19.25C11.7141 19.25 10.8641 19.375 10.1141 19.625C9.36406 19.875 8.9224 20.1667 8.78906 20.5H16.5641C16.4141 20.1667 15.9682 19.875 15.2266 19.625C14.4849 19.375 13.6307 19.25 12.6641 19.25ZM4.66406 17.5C4.11406 17.5 3.64323 17.3042 3.25156 16.9125C2.8599 16.5208 2.66406 16.05 2.66406 15.5C2.66406 14.9333 2.8599 14.4583 3.25156 14.075C3.64323 13.6917 4.11406 13.5 4.66406 13.5C5.23073 13.5 5.70573 13.6917 6.08906 14.075C6.4724 14.4583 6.66406 14.9333 6.66406 15.5C6.66406 16.05 6.4724 16.5208 6.08906 16.9125C5.70573 17.3042 5.23073 17.5 4.66406 17.5ZM20.6641 17.5C20.1141 17.5 19.6432 17.3042 19.2516 16.9125C18.8599 16.5208 18.6641 16.05 18.6641 15.5C18.6641 14.9333 18.8599 14.4583 19.2516 14.075C19.6432 13.6917 20.1141 13.5 20.6641 13.5C21.2307 13.5 21.7057 13.6917 22.0891 14.075C22.4724 14.4583 22.6641 14.9333 22.6641 15.5C22.6641 16.05 22.4724 16.5208 22.0891 16.9125C21.7057 17.3042 21.2307 17.5 20.6641 17.5ZM12.6641 16.5C11.8307 16.5 11.1224 16.2083 10.5391 15.625C9.95573 15.0417 9.66406 14.3333 9.66406 13.5C9.66406 12.65 9.95573 11.9375 10.5391 11.3625C11.1224 10.7875 11.8307 10.5 12.6641 10.5C13.5141 10.5 14.2266 10.7875 14.8016 11.3625C15.3766 11.9375 15.6641 12.65 15.6641 13.5C15.6641 14.3333 15.3766 15.0417 14.8016 15.625C14.2266 16.2083 13.5141 16.5 12.6641 16.5ZM12.6641 12.5C12.3807 12.5 12.1432 12.5958 11.9516 12.7875C11.7599 12.9792 11.6641 13.2167 11.6641 13.5C11.6641 13.7833 11.7599 14.0208 11.9516 14.2125C12.1432 14.4042 12.3807 14.5 12.6641 14.5C12.9474 14.5 13.1849 14.4042 13.3766 14.2125C13.5682 14.0208 13.6641 13.7833 13.6641 13.5C13.6641 13.2167 13.5682 12.9792 13.3766 12.7875C13.1849 12.5958 12.9474 12.5 12.6641 12.5Z" fill="black"/>
</g>
</svg>
