<svg width="62" height="25" viewBox="0 0 62 25" fill="none" xmlns="http://www.w3.org/2000/svg">
<mask id="mask0_12641_59097" style="mask-type:alpha" maskUnits="userSpaceOnUse" x="0" y="5" width="14" height="15">
<rect y="5.5" width="14" height="14" fill="#D9D9D9"/>
</mask>
<g mask="url(#mask0_12641_59097)">
<path d="M4.0651 13.9299L4.38594 16.832H9.60677L9.94219 13.8424C9.63108 13.8327 9.3151 13.7987 8.99427 13.7404C8.67344 13.682 8.27483 13.5848 7.79844 13.4487C7.57483 13.3904 7.35122 13.3466 7.1276 13.3174C6.90399 13.2883 6.68524 13.2737 6.47135 13.2737C6.10191 13.2737 5.71302 13.3272 5.30469 13.4341C4.89635 13.5411 4.48316 13.7063 4.0651 13.9299ZM3.84635 11.9758C4.28385 11.8008 4.72135 11.6671 5.15885 11.5747C5.59635 11.4824 6.03385 11.4362 6.47135 11.4362C6.78247 11.4362 7.09115 11.4581 7.3974 11.5018C7.70365 11.5456 8.0026 11.6063 8.29427 11.6841C8.76094 11.8202 9.11823 11.9102 9.36615 11.9539C9.61406 11.9977 9.87413 12.0195 10.1464 12.0195L10.5693 8.16953H3.42344L3.84635 11.9758ZM4.37135 18.6695C3.90469 18.6695 3.49635 18.514 3.14635 18.2029C2.79635 17.8918 2.59705 17.5029 2.54844 17.0362L1.36719 6.33203H12.6255L11.4443 17.0362C11.3957 17.5029 11.1964 17.8918 10.8464 18.2029C10.4964 18.514 10.088 18.6695 9.62136 18.6695H4.37135Z" fill="black"/>
</g>
<mask id="mask1_12641_59097" style="mask-type:alpha" maskUnits="userSpaceOnUse" x="18" y="5" width="14" height="15">
<rect x="18" y="5.5" width="14" height="14" fill="#D9D9D9"/>
</mask>
<g mask="url(#mask1_12641_59097)">
<path d="M22.0651 13.9299L22.3859 16.832H27.6068L27.9422 13.8424C27.6311 13.8327 27.3151 13.7987 26.9943 13.7404C26.6734 13.682 26.2748 13.5848 25.7984 13.4487C25.5748 13.3904 25.3512 13.3466 25.1276 13.3174C24.904 13.2883 24.6852 13.2737 24.4714 13.2737C24.1019 13.2737 23.713 13.3272 23.3047 13.4341C22.8964 13.5411 22.4832 13.7063 22.0651 13.9299ZM21.8464 11.9758C22.2839 11.8008 22.7214 11.6671 23.1589 11.5747C23.5964 11.4824 24.0339 11.4362 24.4714 11.4362C24.7825 11.4362 25.0911 11.4581 25.3974 11.5018C25.7036 11.5456 26.0026 11.6063 26.2943 11.6841C26.7609 11.8202 27.1182 11.9102 27.3661 11.9539C27.6141 11.9977 27.8741 12.0195 28.1464 12.0195L28.5693 8.16953H21.4234L21.8464 11.9758ZM22.3714 18.6695C21.9047 18.6695 21.4964 18.514 21.1464 18.2029C20.7964 17.8918 20.597 17.5029 20.5484 17.0362L19.3672 6.33203H30.6255L29.4443 17.0362C29.3957 17.5029 29.1964 17.8918 28.8464 18.2029C28.4964 18.514 28.088 18.6695 27.6214 18.6695H22.3714Z" fill="black"/>
</g>
<mask id="mask2_12641_59097" style="mask-type:alpha" maskUnits="userSpaceOnUse" x="36" y="5" width="14" height="15">
<rect x="36" y="5.5" width="14" height="14" fill="#D9D9D9"/>
</mask>
<g mask="url(#mask2_12641_59097)">
<path d="M40.0651 13.9299L40.3859 16.832H45.6068L45.9422 13.8424C45.6311 13.8327 45.3151 13.7987 44.9943 13.7404C44.6734 13.682 44.2748 13.5848 43.7984 13.4487C43.5748 13.3904 43.3512 13.3466 43.1276 13.3174C42.904 13.2883 42.6852 13.2737 42.4714 13.2737C42.1019 13.2737 41.713 13.3272 41.3047 13.4341C40.8964 13.5411 40.4832 13.7063 40.0651 13.9299ZM39.8464 11.9758C40.2839 11.8008 40.7214 11.6671 41.1589 11.5747C41.5964 11.4824 42.0339 11.4362 42.4714 11.4362C42.7825 11.4362 43.0911 11.4581 43.3974 11.5018C43.7036 11.5456 44.0026 11.6063 44.2943 11.6841C44.7609 11.8202 45.1182 11.9102 45.3661 11.9539C45.6141 11.9977 45.8741 12.0195 46.1464 12.0195L46.5693 8.16953H39.4234L39.8464 11.9758ZM40.3714 18.6695C39.9047 18.6695 39.4964 18.514 39.1464 18.2029C38.7964 17.8918 38.597 17.5029 38.5484 17.0362L37.3672 6.33203H48.6255L47.4443 17.0362C47.3957 17.5029 47.1964 17.8918 46.8464 18.2029C46.4964 18.514 46.088 18.6695 45.6214 18.6695H40.3714Z" fill="black"/>
</g>
<rect x="57" y="8.5" width="2" height="8" rx="1" fill="black"/>
<rect x="62" y="11.5" width="2" height="8" rx="1" transform="rotate(90 62 11.5)" fill="black"/>
</svg>
