<svg width="84" height="25" viewBox="0 0 84 25" fill="none" xmlns="http://www.w3.org/2000/svg">
<mask id="mask0_12641_59076" style="mask-type:alpha" maskUnits="userSpaceOnUse" x="0" y="0" width="24" height="25">
<rect y="0.5" width="24" height="24" fill="#D9D9D9"/>
</mask>
<g mask="url(#mask0_12641_59076)">
<path d="M8 22.5C7.45 22.5 6.97917 22.3042 6.5875 21.9125C6.19583 21.5208 6 21.05 6 20.5V10.95C6 10.5167 6.125 10.1292 6.375 9.7875C6.625 9.44583 6.95 9.2 7.35 9.05L8.3 8.7C8.53333 8.61667 8.70833 8.49583 8.825 8.3375C8.94167 8.17917 9 7.98333 9 7.75V3.5C9 3.21667 9.09583 2.97917 9.2875 2.7875C9.47917 2.59583 9.71667 2.5 10 2.5H13C13.2833 2.5 13.5208 2.59583 13.7125 2.7875C13.9042 2.97917 14 3.21667 14 3.5V7.75C14 7.98333 14.0583 8.17917 14.175 8.3375C14.2917 8.49583 14.4667 8.61667 14.7 8.7L15.65 9.05C16.05 9.2 16.375 9.44583 16.625 9.7875C16.875 10.1292 17 10.5167 17 10.95V20.5C17 21.05 16.8042 21.5208 16.4125 21.9125C16.0208 22.3042 15.55 22.5 15 22.5H8ZM11 5.5H12V4.5H11V5.5ZM8 12.5H15V10.95L14.05 10.6C13.4167 10.3667 12.9167 10 12.55 9.5C12.1833 9 12 8.43333 12 7.8V7.5H11V7.8C11 8.43333 10.8167 9 10.45 9.5C10.0833 10 9.58333 10.3667 8.95 10.6L8 10.95V12.5ZM8 20.5H15V18.5H8V20.5ZM8 16.5H15V14.5H8V16.5Z" fill="black"/>
</g>
<rect x="28" y="5.5" width="2" height="14" rx="1" fill="black"/>
<mask id="mask1_12641_59076" style="mask-type:alpha" maskUnits="userSpaceOnUse" x="34" y="5" width="14" height="15">
<rect x="34" y="5.5" width="14" height="14" fill="#D9D9D9"/>
</mask>
<g mask="url(#mask1_12641_59076)">
<path d="M38.0651 13.9299L38.3859 16.832H43.6068L43.9422 13.8424C43.6311 13.8327 43.3151 13.7987 42.9943 13.7404C42.6734 13.682 42.2748 13.5848 41.7984 13.4487C41.5748 13.3904 41.3512 13.3466 41.1276 13.3174C40.904 13.2883 40.6852 13.2737 40.4714 13.2737C40.1019 13.2737 39.713 13.3272 39.3047 13.4341C38.8964 13.5411 38.4832 13.7063 38.0651 13.9299ZM37.8464 11.9758C38.2839 11.8008 38.7214 11.6671 39.1589 11.5747C39.5964 11.4824 40.0339 11.4362 40.4714 11.4362C40.7825 11.4362 41.0911 11.4581 41.3974 11.5018C41.7036 11.5456 42.0026 11.6063 42.2943 11.6841C42.7609 11.8202 43.1182 11.9102 43.3661 11.9539C43.6141 11.9977 43.8741 12.0195 44.1464 12.0195L44.5693 8.16953H37.4234L37.8464 11.9758ZM38.3714 18.6695C37.9047 18.6695 37.4964 18.514 37.1464 18.2029C36.7964 17.8918 36.597 17.5029 36.5484 17.0362L35.3672 6.33203H46.6255L45.4443 17.0362C45.3957 17.5029 45.1964 17.8918 44.8464 18.2029C44.4964 18.514 44.088 18.6695 43.6214 18.6695H38.3714Z" fill="black"/>
</g>
<mask id="mask2_12641_59076" style="mask-type:alpha" maskUnits="userSpaceOnUse" x="52" y="5" width="14" height="15">
<rect x="52" y="5.5" width="14" height="14" fill="#D9D9D9"/>
</mask>
<g mask="url(#mask2_12641_59076)">
<path d="M56.0651 13.9299L56.3859 16.832H61.6068L61.9422 13.8424C61.6311 13.8327 61.3151 13.7987 60.9943 13.7404C60.6734 13.682 60.2748 13.5848 59.7984 13.4487C59.5748 13.3904 59.3512 13.3466 59.1276 13.3174C58.904 13.2883 58.6852 13.2737 58.4714 13.2737C58.1019 13.2737 57.713 13.3272 57.3047 13.4341C56.8964 13.5411 56.4832 13.7063 56.0651 13.9299ZM55.8464 11.9758C56.2839 11.8008 56.7214 11.6671 57.1589 11.5747C57.5964 11.4824 58.0339 11.4362 58.4714 11.4362C58.7825 11.4362 59.0911 11.4581 59.3974 11.5018C59.7036 11.5456 60.0026 11.6063 60.2943 11.6841C60.7609 11.8202 61.1182 11.9102 61.3661 11.9539C61.6141 11.9977 61.8741 12.0195 62.1464 12.0195L62.5693 8.16953H55.4234L55.8464 11.9758ZM56.3714 18.6695C55.9047 18.6695 55.4964 18.514 55.1464 18.2029C54.7964 17.8918 54.597 17.5029 54.5484 17.0362L53.3672 6.33203H64.6255L63.4443 17.0362C63.3957 17.5029 63.1964 17.8918 62.8464 18.2029C62.4964 18.514 62.088 18.6695 61.6214 18.6695H56.3714Z" fill="black"/>
</g>
<mask id="mask3_12641_59076" style="mask-type:alpha" maskUnits="userSpaceOnUse" x="70" y="5" width="14" height="15">
<rect x="70" y="5.5" width="14" height="14" fill="#D9D9D9"/>
</mask>
<g mask="url(#mask3_12641_59076)">
<path d="M74.0651 13.9299L74.3859 16.832H79.6068L79.9422 13.8424C79.6311 13.8327 79.3151 13.7987 78.9943 13.7404C78.6734 13.682 78.2748 13.5848 77.7984 13.4487C77.5748 13.3904 77.3512 13.3466 77.1276 13.3174C76.904 13.2883 76.6852 13.2737 76.4714 13.2737C76.1019 13.2737 75.713 13.3272 75.3047 13.4341C74.8964 13.5411 74.4832 13.7063 74.0651 13.9299ZM73.8464 11.9758C74.2839 11.8008 74.7214 11.6671 75.1589 11.5747C75.5964 11.4824 76.0339 11.4362 76.4714 11.4362C76.7825 11.4362 77.0911 11.4581 77.3974 11.5018C77.7036 11.5456 78.0026 11.6063 78.2943 11.6841C78.7609 11.8202 79.1182 11.9102 79.3661 11.9539C79.6141 11.9977 79.8741 12.0195 80.1464 12.0195L80.5693 8.16953H73.4234L73.8464 11.9758ZM74.3714 18.6695C73.9047 18.6695 73.4964 18.514 73.1464 18.2029C72.7964 17.8918 72.597 17.5029 72.5484 17.0362L71.3672 6.33203H82.6255L81.4443 17.0362C81.3957 17.5029 81.1964 17.8918 80.8464 18.2029C80.4964 18.514 80.088 18.6695 79.6214 18.6695H74.3714Z" fill="black"/>
</g>
</svg>
