<svg width="241" height="241" viewBox="0 0 241 241" fill="none" xmlns="http://www.w3.org/2000/svg">
<g opacity="0.04">
<mask id="mask0_12676_48230" style="mask-type:alpha" maskUnits="userSpaceOnUse" x="0" y="0" width="241" height="241">
<rect x="0.5" y="0.5" width="240" height="240" fill="#D9D9D9"/>
</mask>
<g mask="url(#mask0_12676_48230)">
<path d="M10.5 190.5V40.5H30.5V140.5H110.5V60.5H190.5C201.5 60.5 210.917 64.4167 218.75 72.25C226.583 80.0833 230.5 89.5 230.5 100.5V190.5H210.5V160.5H30.5V190.5H10.5ZM70.5 130.5C62.1667 130.5 55.0833 127.583 49.25 121.75C43.4167 115.917 40.5 108.833 40.5 100.5C40.5 92.1667 43.4167 85.0833 49.25 79.25C55.0833 73.4167 62.1667 70.5 70.5 70.5C78.8333 70.5 85.9167 73.4167 91.75 79.25C97.5833 85.0833 100.5 92.1667 100.5 100.5C100.5 108.833 97.5833 115.917 91.75 121.75C85.9167 127.583 78.8333 130.5 70.5 130.5ZM130.5 140.5H210.5V100.5C210.5 95 208.542 90.2917 204.625 86.375C200.708 82.4583 196 80.5 190.5 80.5H130.5V140.5ZM70.5 110.5C73.3333 110.5 75.7083 109.542 77.625 107.625C79.5417 105.708 80.5 103.333 80.5 100.5C80.5 97.6667 79.5417 95.2917 77.625 93.375C75.7083 91.4583 73.3333 90.5 70.5 90.5C67.6667 90.5 65.2917 91.4583 63.375 93.375C61.4583 95.2917 60.5 97.6667 60.5 100.5C60.5 103.333 61.4583 105.708 63.375 107.625C65.2917 109.542 67.6667 110.5 70.5 110.5Z" fill="#6100FF"/>
</g>
</g>
</svg>
