<svg width="33" height="25" viewBox="0 0 33 25" fill="none" xmlns="http://www.w3.org/2000/svg">
<mask id="mask0_12641_59062" style="mask-type:alpha" maskUnits="userSpaceOnUse" x="0" y="5" width="15" height="15">
<rect x="0.664062" y="5.5" width="14" height="14" fill="#D9D9D9"/>
</mask>
<g mask="url(#mask0_12641_59062)">
<path d="M4.72917 13.9299L5.05 16.832H10.2708L10.6063 13.8424C10.2951 13.8327 9.97917 13.7987 9.65833 13.7404C9.3375 13.682 8.93889 13.5848 8.4625 13.4487C8.23889 13.3904 8.01528 13.3466 7.79167 13.3174C7.56806 13.2883 7.34931 13.2737 7.13542 13.2737C6.76597 13.2737 6.37708 13.3272 5.96875 13.4341C5.56042 13.5411 5.14722 13.7063 4.72917 13.9299ZM4.51042 11.9758C4.94792 11.8008 5.38542 11.6671 5.82292 11.5747C6.26042 11.4824 6.69792 11.4362 7.13542 11.4362C7.44653 11.4362 7.75521 11.4581 8.06146 11.5018C8.36771 11.5456 8.66667 11.6063 8.95833 11.6841C9.425 11.8202 9.78229 11.9102 10.0302 11.9539C10.2781 11.9977 10.5382 12.0195 10.8104 12.0195L11.2333 8.16953H4.0875L4.51042 11.9758ZM5.03542 18.6695C4.56875 18.6695 4.16042 18.514 3.81042 18.2029C3.46042 17.8918 3.26111 17.5029 3.2125 17.0362L2.03125 6.33203H13.2896L12.1083 17.0362C12.0597 17.5029 11.8604 17.8918 11.5104 18.2029C11.1604 18.514 10.7521 18.6695 10.2854 18.6695H5.03542Z" fill="black"/>
</g>
<mask id="mask1_12641_59062" style="mask-type:alpha" maskUnits="userSpaceOnUse" x="18" y="5" width="15" height="15">
<rect x="18.6641" y="5.5" width="14" height="14" fill="#D9D9D9"/>
</mask>
<g mask="url(#mask1_12641_59062)">
<path d="M22.7292 13.9299L23.05 16.832H28.2708L28.6063 13.8424C28.2951 13.8327 27.9792 13.7987 27.6583 13.7404C27.3375 13.682 26.9389 13.5848 26.4625 13.4487C26.2389 13.3904 26.0153 13.3466 25.7917 13.3174C25.5681 13.2883 25.3493 13.2737 25.1354 13.2737C24.766 13.2737 24.3771 13.3272 23.9688 13.4341C23.5604 13.5411 23.1472 13.7063 22.7292 13.9299ZM22.5104 11.9758C22.9479 11.8008 23.3854 11.6671 23.8229 11.5747C24.2604 11.4824 24.6979 11.4362 25.1354 11.4362C25.4465 11.4362 25.7552 11.4581 26.0615 11.5018C26.3677 11.5456 26.6667 11.6063 26.9583 11.6841C27.425 11.8202 27.7823 11.9102 28.0302 11.9539C28.2781 11.9977 28.5382 12.0195 28.8104 12.0195L29.2333 8.16953H22.0875L22.5104 11.9758ZM23.0354 18.6695C22.5688 18.6695 22.1604 18.514 21.8104 18.2029C21.4604 17.8918 21.2611 17.5029 21.2125 17.0362L20.0312 6.33203H31.2896L30.1083 17.0362C30.0597 17.5029 29.8604 17.8918 29.5104 18.2029C29.1604 18.514 28.7521 18.6695 28.2854 18.6695H23.0354Z" fill="black"/>
</g>
</svg>
