<svg width="32" height="33" viewBox="0 0 32 33" fill="none" xmlns="http://www.w3.org/2000/svg">
<mask id="mask0_12676_58027" style="mask-type:alpha" maskUnits="userSpaceOnUse" x="0" y="0" width="32" height="33">
<rect y="0.5" width="32" height="32" fill="#D9D9D9"/>
</mask>
<g mask="url(#mask0_12676_58027)">
<path d="M6.76771 30.1004C5.92326 30.1004 5.20682 29.8062 4.61838 29.2177C4.02904 28.6284 3.73438 27.9115 3.73438 27.0671V8.60039C3.73438 7.75595 4.02904 7.03906 4.61838 6.44972C5.20682 5.86128 5.92326 5.56706 6.76771 5.56706H8.00104V2.90039H10.8677V5.56706H21.1344V2.90039H24.001V5.56706H25.2344C26.0788 5.56706 26.7957 5.86128 27.385 6.44972C27.9735 7.03906 28.2677 7.75595 28.2677 8.60039V27.0671C28.2677 27.9115 27.9735 28.6284 27.385 29.2177C26.7957 29.8062 26.0788 30.1004 25.2344 30.1004H6.76771ZM6.76771 27.0671H25.2344V13.8337H6.76771V27.0671ZM6.76771 11.1671H25.2344V8.60039H6.76771V11.1671ZM16.001 19.2337C15.601 19.2337 15.2677 19.1004 15.001 18.8337C14.7344 18.5671 14.601 18.2337 14.601 17.8337C14.601 17.4337 14.7344 17.1004 15.001 16.8337C15.2677 16.5671 15.601 16.4337 16.001 16.4337C16.401 16.4337 16.7344 16.5671 17.001 16.8337C17.2677 17.1004 17.401 17.4337 17.401 17.8337C17.401 18.2337 17.2677 18.5671 17.001 18.8337C16.7344 19.1004 16.401 19.2337 16.001 19.2337ZM10.6677 19.2337C10.2677 19.2337 9.93437 19.1004 9.66771 18.8337C9.40104 18.5671 9.26771 18.2337 9.26771 17.8337C9.26771 17.4337 9.40104 17.1004 9.66771 16.8337C9.93437 16.5671 10.2677 16.4337 10.6677 16.4337C11.0677 16.4337 11.401 16.5671 11.6677 16.8337C11.9344 17.1004 12.0677 17.4337 12.0677 17.8337C12.0677 18.2337 11.9344 18.5671 11.6677 18.8337C11.401 19.1004 11.0677 19.2337 10.6677 19.2337ZM21.3344 19.2337C20.9566 19.2337 20.629 19.1004 20.3517 18.8337C20.0735 18.5671 19.9344 18.2337 19.9344 17.8337C19.9344 17.4337 20.0735 17.1004 20.3517 16.8337C20.629 16.5671 20.9566 16.4337 21.3344 16.4337C21.7344 16.4337 22.0677 16.5671 22.3344 16.8337C22.601 17.1004 22.7344 17.4337 22.7344 17.8337C22.7344 18.2337 22.601 18.5671 22.3344 18.8337C22.0677 19.1004 21.7344 19.2337 21.3344 19.2337ZM16.001 24.5671C15.601 24.5671 15.2677 24.4284 15.001 24.1511C14.7344 23.8728 14.601 23.5448 14.601 23.1671C14.601 22.7671 14.7344 22.4337 15.001 22.1671C15.2677 21.9004 15.601 21.7671 16.001 21.7671C16.401 21.7671 16.7344 21.9004 17.001 22.1671C17.2677 22.4337 17.401 22.7671 17.401 23.1671C17.401 23.5448 17.2677 23.8728 17.001 24.1511C16.7344 24.4284 16.401 24.5671 16.001 24.5671ZM10.6677 24.5671C10.2677 24.5671 9.93437 24.4284 9.66771 24.1511C9.40104 23.8728 9.26771 23.5448 9.26771 23.1671C9.26771 22.7671 9.40104 22.4337 9.66771 22.1671C9.93437 21.9004 10.2677 21.7671 10.6677 21.7671C11.0677 21.7671 11.401 21.9004 11.6677 22.1671C11.9344 22.4337 12.0677 22.7671 12.0677 23.1671C12.0677 23.5448 11.9344 23.8728 11.6677 24.1511C11.401 24.4284 11.0677 24.5671 10.6677 24.5671ZM21.3344 24.5671C20.9566 24.5671 20.629 24.4284 20.3517 24.1511C20.0735 23.8728 19.9344 23.5448 19.9344 23.1671C19.9344 22.7671 20.0735 22.4337 20.3517 22.1671C20.629 21.9004 20.9566 21.7671 21.3344 21.7671C21.7344 21.7671 22.0677 21.9004 22.3344 22.1671C22.601 22.4337 22.7344 22.7671 22.7344 23.1671C22.7344 23.5448 22.601 23.8728 22.3344 24.1511C22.0677 24.4284 21.7344 24.5671 21.3344 24.5671Z" fill="#6100FF"/>
</g>
</svg>
