<svg width="80" height="80" viewBox="0 0 80 80" fill="none" xmlns="http://www.w3.org/2000/svg">
<mask id="mask0_12641_60066" style="mask-type:alpha" maskUnits="userSpaceOnUse" x="0" y="0" width="80" height="80">
<rect width="80" height="80" fill="#D9D9D9"/>
</mask>
<g mask="url(#mask0_12641_60066)">
<path d="M40.0005 36.4306C43.614 36.4306 46.6997 35.1516 49.2577 32.5937C51.8157 30.0357 53.0947 26.9499 53.0947 23.3364V13.5756H26.9063V23.3364C26.9063 26.9499 28.1853 30.0357 30.7432 32.5937C33.3013 35.1516 36.387 36.4306 40.0005 36.4306ZM12.6562 74.0139V66.4306H19.3229V56.6698C19.3229 53.334 20.0781 50.1867 21.5883 47.2278C23.0986 44.2688 25.2106 41.8606 27.9244 40.0031C25.2106 38.1456 23.0986 35.7374 21.5883 32.7784C20.0781 29.8195 19.3229 26.6722 19.3229 23.3364V13.5756H12.6562V5.99219H67.3447V13.5756H60.6781V23.3364C60.6781 26.6722 59.9263 29.8195 58.4226 32.7784C56.919 35.7374 54.8036 38.1456 52.0766 40.0031C54.8036 41.8606 56.919 44.2688 58.4226 47.2278C59.9263 50.1867 60.6781 53.334 60.6781 56.6698V66.4306H67.3447V74.0139H12.6562Z" fill="#6100FF" fill-opacity="0.04"/>
</g>
</svg>
