<svg width="25" height="25" viewBox="0 0 25 25" fill="none" xmlns="http://www.w3.org/2000/svg">
<mask id="mask0_12777_59020" style="mask-type:alpha" maskUnits="userSpaceOnUse" x="0" y="0" width="25" height="25">
<rect x="0.335938" y="0.5" width="24" height="24" fill="#D9D9D9"/>
</mask>
<g mask="url(#mask0_12777_59020)">
<path d="M13.8359 22.5C12.0359 22.5 10.5026 21.8667 9.23594 20.6C7.96927 19.3333 7.33594 17.8 7.33594 16V15.425C5.9026 15.1917 4.71094 14.5208 3.76094 13.4125C2.81094 12.3042 2.33594 11 2.33594 9.5V3.5H5.33594V2.5H7.33594V6.5H5.33594V5.5H4.33594V9.5C4.33594 10.6 4.7276 11.5417 5.51094 12.325C6.29427 13.1083 7.23594 13.5 8.33594 13.5C9.43594 13.5 10.3776 13.1083 11.1609 12.325C11.9443 11.5417 12.3359 10.6 12.3359 9.5V5.5H11.3359V6.5H9.33594V2.5H11.3359V3.5H14.3359V9.5C14.3359 11 13.8609 12.3042 12.9109 13.4125C11.9609 14.5208 10.7693 15.1917 9.33594 15.425V16C9.33594 17.25 9.77344 18.3125 10.6484 19.1875C11.5234 20.0625 12.5859 20.5 13.8359 20.5C15.0859 20.5 16.1484 20.0625 17.0234 19.1875C17.8984 18.3125 18.3359 17.25 18.3359 16V14.325C17.7526 14.125 17.2734 13.7667 16.8984 13.25C16.5234 12.7333 16.3359 12.15 16.3359 11.5C16.3359 10.6667 16.6276 9.95833 17.2109 9.375C17.7943 8.79167 18.5026 8.5 19.3359 8.5C20.1693 8.5 20.8776 8.79167 21.4609 9.375C22.0443 9.95833 22.3359 10.6667 22.3359 11.5C22.3359 12.15 22.1484 12.7333 21.7734 13.25C21.3984 13.7667 20.9193 14.125 20.3359 14.325V16C20.3359 17.8 19.7026 19.3333 18.4359 20.6C17.1693 21.8667 15.6359 22.5 13.8359 22.5ZM19.3359 12.5C19.6193 12.5 19.8568 12.4042 20.0484 12.2125C20.2401 12.0208 20.3359 11.7833 20.3359 11.5C20.3359 11.2167 20.2401 10.9792 20.0484 10.7875C19.8568 10.5958 19.6193 10.5 19.3359 10.5C19.0526 10.5 18.8151 10.5958 18.6234 10.7875C18.4318 10.9792 18.3359 11.2167 18.3359 11.5C18.3359 11.7833 18.4318 12.0208 18.6234 12.2125C18.8151 12.4042 19.0526 12.5 19.3359 12.5Z" fill="black"/>
</g>
</svg>
